<svg xmlns="http://www.w3.org/2000/svg" fill="none" viewBox="0 0 24 24"><path fill="#fff" fill-opacity=".87" fill-rule="evenodd" d="M15.69 11.44c-.02-1.77 1.4-2.62 1.46-2.67a3.12 3.12 0 0 0-2.47-1.38c-1.06-.12-2.06.64-2.6.64-.52 0-1.35-.63-2.22-.61a3.3 3.3 0 0 0-2.8 1.75c-1.19 2.15-.3 5.32.86 7.06.57.85 1.25 1.8 2.13 1.77.86-.04 1.18-.57 2.22-.57 1.03 0 1.32.57 2.23.55.92-.02 1.5-.86 2.06-1.72.66-.99.92-1.94.94-1.99-.02 0-1.8-.71-1.81-2.83Zm-1.7-5.2c.47-.6.79-1.42.7-2.24a3 3 0 0 0-1.99 1.06 3 3 0 0 0-.72 2.17c.76.06 1.53-.4 2-1Z" clip-rule="evenodd"/></svg>