<svg xmlns="http://www.w3.org/2000/svg" fill="none" viewBox="0 0 104 104"><g clip-path="url(#a)"><mask id="b" width="104" height="104" x="0" y="0" maskUnits="userSpaceOnUse" style="mask-type:luminance"><path fill="#fff" d="M0 0h104v104H0V0Z"/></mask><g stroke-linecap="round" stroke-linejoin="round" stroke-miterlimit="10" stroke-width="3.5" mask="url(#b)"><path stroke="#BFBFBF" d="M19.36 100.95H52V68.32H19.36v32.63ZM35.68 52H3.05l16.31 16.32H52L35.68 52ZM52 100.95h32.64V68.32H52v32.63ZM100.95 52H68.32L52 68.32h32.64L100.95 52Z"/><path stroke="#F2E7FE" d="M52 48.74s0-35.9-19.58-35.9c-16.32 0-16.32 22.84 6.53 22.84M68.32 6.31c22.84 0 22.84 29.37-6.53 29.37"/><path stroke="#9025F1" d="m52 3.05 3.26 3.26 3.27-3.26"/></g></g><defs><clipPath id="a"><path fill="#fff" d="M0 0h104v104H0z"/></clipPath></defs></svg>