<svg xmlns="http://www.w3.org/2000/svg" fill="none" viewBox="0 0 24 24"><path fill="#000" fill-opacity=".6" fill-rule="evenodd" d="M2 12a10 10 0 1 1 20.02.02A10 10 0 0 1 2 12Zm1.67 0a8.34 8.34 0 1 0 16.67 0 8.34 8.34 0 0 0-16.67 0Zm9-5.91c-1.5-.4-3.18.6-3.63 2.16-.14.44.1.9.5 1.04.4.13.85-.1.99-.55.22-.72 1.06-1.23 1.78-1.05.7.18 1.24 1.05 1.1 1.81-.13.76-.9 1.37-1.63 1.27a.75.75 0 0 0-.61.2.85.85 0 0 0-.27.63l-.01 2.57c0 .47.34.83.78.83s.78-.36.78-.83l.02-1.8a3.25 3.25 0 0 0 2.48-2.59c.29-1.6-.76-3.3-2.28-3.7ZM12 16h.02c.54 0 .96.37.98.88v.15c-.02.5-.46.97-1 .97h-.02c-.54-.02-.98-.36-.98-.86v-.2a1 1 0 0 1 1-.94Z" clip-rule="evenodd"/></svg>