<svg xmlns="http://www.w3.org/2000/svg" fill="none" viewBox="0 0 28 28"><path fill="#4285F4" fill-rule="evenodd" d="M27.33 14.3c0-.94-.08-1.85-.24-2.72H14.27v5.15h7.32a6.13 6.13 0 0 1-2.71 4.03v3.34h4.4c2.57-2.32 4.05-5.74 4.05-9.8Z" clip-rule="evenodd"/><path fill="#34A853" fill-rule="evenodd" d="M14.27 27.33c3.68 0 6.76-1.19 9-3.23l-4.4-3.34a8.3 8.3 0 0 1-4.6 1.27 8.1 8.1 0 0 1-7.61-5.5H2.1V20a13.63 13.63 0 0 0 12.16 7.34Z" clip-rule="evenodd"/><path fill="#FBBC05" fill-rule="evenodd" d="M6.66 16.53a7.87 7.87 0 0 1 0-5.06V8H2.1a13.11 13.11 0 0 0 0 11.98l4.55-3.46Z" clip-rule="evenodd"/><path fill="#EA4335" fill-rule="evenodd" d="M14.27 5.97c2 0 3.8.67 5.2 2l3.9-3.83a13.22 13.22 0 0 0-9.1-3.47C8.95.67 4.35 3.65 2.11 8l4.55 3.46a8.1 8.1 0 0 1 7.61-5.5Z" clip-rule="evenodd"/></svg>