<svg xmlns="http://www.w3.org/2000/svg" fill="none" viewBox="0 0 24 24"><path fill="#9025F1" fill-rule="evenodd" d="M8.5 3.88h2.22V2.83c0-.46.37-.83.81-.83.45 0 .81.37.81.83v1.04h2.23V2.83c0-.46.36-.83.8-.83.46 0 .82.37.82.83v1.04h.8a2.26 2.26 0 0 1 2.23 2.3V19.7c0 1.26-1 2.29-2.22 2.29H6.07a2.26 2.26 0 0 1-2.23-2.3V6.18c0-1.27 1-2.3 2.23-2.3h.81V2.83c0-.46.36-.83.8-.83.46 0 .82.37.82.83v1.04Zm-.6 4.79h4.04c.45 0 .8.37.8.83 0 .46-.35.83-.8.83H7.89a.82.82 0 0 1-.8-.83c0-.46.35-.83.8-.83Zm0 8.33h8.09c.44 0 .8-.37.8-.83a.82.82 0 0 0-.8-.84h-8.1c-.45 0-.8.38-.8.84 0 .46.35.83.8.83Zm8.09-3.33h-8.1a.82.82 0 0 1-.8-.84c0-.46.35-.83.8-.83H16c.44 0 .8.37.8.83 0 .46-.36.84-.8.84Z" clip-rule="evenodd"/></svg>