<svg xmlns="http://www.w3.org/2000/svg" fill="none" viewBox="0 0 24 24"><path fill="#fff" d="M10.38 5.77h2.54V18h-2.54z"/><path fill="url(#a)" fill-rule="evenodd" d="M11.63 8.38c.7 0 1.26-.59 1.26-1.26 0-.69-.57-1.26-1.26-1.26-.68 0-1.24.57-1.24 1.26 0 .67.54 1.26 1.24 1.26Zm-1.25 2.36a1.27 1.27 0 0 1 2.54 0v6a1.27 1.27 0 0 1-2.54 0v-6Zm-8.5 11.38H12A10.12 10.12 0 1 0 1.87 12v10.13Z" clip-rule="evenodd"/><defs><linearGradient id="a" x1="1.88" x2="1.88" y1="1.88" y2="22.13" gradientUnits="userSpaceOnUse"><stop stop-color="#6A19D5"/><stop offset="1" stop-color="#D71ADE"/></linearGradient></defs></svg>