<svg xmlns="http://www.w3.org/2000/svg" fill="none" viewBox="0 0 24 24"><path fill="#666" fill-rule="evenodd" d="m21.55 10.3-2.34-.57c-.12-.41-.29-.8-.49-1.2l1.2-1.99a.58.58 0 0 0-.08-.71l-1.67-1.67a.58.58 0 0 0-.71-.08l-2 1.2c-.38-.2-.78-.37-1.2-.5l-.55-2.33a.6.6 0 0 0-.58-.45H10.8a.6.6 0 0 0-.58.45l-.56 2.34c-.4.12-.8.29-1.2.49l-1.99-1.2a.58.58 0 0 0-.71.08L4.09 5.83a.58.58 0 0 0-.09.71l1.2 2c-.2.38-.36.78-.5 1.19l-2.25.57a.58.58 0 0 0-.45.57v2.34c0 .27.19.5.45.56l2.26.58c.13.4.29.8.49 1.2L4 17.53c-.14.23-.1.52.09.71l1.66 1.66c.19.2.48.23.71.09l2-1.2c.38.2.78.36 1.2.5l.55 2.25c.08.26.3.45.58.45h2.34a.6.6 0 0 0 .58-.45l.56-2.26c.41-.13.8-.29 1.2-.49l1.99 1.2c.23.14.52.1.71-.09l1.67-1.66a.58.58 0 0 0 .08-.71l-1.2-2c.2-.38.37-.78.5-1.2l2.33-.57c.26-.06.45-.29.45-.56v-2.34c0-.27-.19-.5-.45-.57Zm-9.59 4.67a2.93 2.93 0 1 1 0-5.86 2.93 2.93 0 0 1 0 5.86Z" clip-rule="evenodd"/></svg>