<svg xmlns="http://www.w3.org/2000/svg" fill="none" viewBox="0 0 72 72"><circle cx="36" cy="36" r="36" fill="#F2E7FE"/><mask id="a" width="72" height="72" x="0" y="0" maskUnits="userSpaceOnUse" style="mask-type:luminance"><circle cx="36" cy="36" r="36" fill="#fff"/></mask><g mask="url(#a)"><path fill="#BCC2D3" d="M58.8 90.32c7.01 5.54 18.4 5.69 25.76-4.28 2.88-3.9 4.43-8.44 5.24-12.58.65-3.36.82-6.48.82-8.81a8.28 8.28 0 0 0-4.86-7.57 7.08 7.08 0 0 0-7.3.6 8.21 8.21 0 0 0-3.3 8.35c.4 2.02.76 4.79.63 7.78a21.63 21.63 0 0 1-1.97 8.49c-4.17 8.67-11.44 3.36-11.44 3.36l-3.59 4.66Z"/><path fill="#232323" d="M82.85 83.94c2.7-3.67 4.16-7.93 4.92-11.83.62-3.16.77-6.08.77-8.28a7.78 7.78 0 0 0-5.47-7.46 8.27 8.27 0 0 1 7.55 8.29c0 2.33-.17 5.44-.83 8.8-.8 4.15-2.35 8.67-5.23 12.58-7.35 9.97-18.75 9.82-25.77 4.28l1.1-1.43c6.65 4.27 16.48 3.84 22.96-4.95Z" opacity=".2"/><path fill="#fff" d="M80.02 58.04a8.21 8.21 0 0 0-3.3 8.35c.4 2.03.76 4.8.63 7.78a21.63 21.63 0 0 1-1.97 8.5c-2.65 5.51-6.56 5.37-9.05 4.54 2.37.32 5.34-.44 7.5-4.91a21.57 21.57 0 0 0 1.96-8.5c.13-2.98-.24-5.75-.63-7.77a8.21 8.21 0 0 1 3.3-8.35 7 7 0 0 1 6.5-.9 6.98 6.98 0 0 0-4.94 1.26Z" opacity=".6"/><path stroke="#232323" stroke-linecap="round" stroke-linejoin="round" stroke-width="1.04" d="M62.38 85.67s7.27 5.3 11.44-3.37c2.75-5.7 2.1-12.38 1.34-16.27a8.2 8.2 0 0 1 3.3-8.35 7.09 7.09 0 0 1 7.3-.6 8.28 8.28 0 0 1 4.86 7.57c0 5.22-.84 14.32-6.06 21.39-7.35 9.97-18.75 9.82-25.77 4.28l3.59-4.65Z" clip-rule="evenodd"/><path fill="#BCC2D3" d="M62.83 99.82c-2.94 2.02-10.67-1.75-13.82-4.8h-26.5c-3.14 3.05-10.88 6.82-13.81 4.8-1.58-1.08-.74-2.92.28-4.3a13.5 13.5 0 0 1 1.62-1.83C-2.18 82.66 8.03 70.8 8.03 70.8c.76-4.44 1.34-9.8 1.66-13.2a8.7 8.7 0 0 0-1.16-5.24 12.57 12.57 0 0 1-.4-.75c-1.17-2.3-2.3-6.3-1.45-12.56.15-1.07.37-2.06.65-3v-.01c2.47-8.35 9.51-11.9 9.51-11.9s.85-8.3 2.9-8.97c2.05-.65 6.26 6.66 6.26 6.66 4.3-1.13 9.76-1.09 9.76-1.09s5.47-.04 9.76 1.09c0 0 4.21-7.31 6.26-6.66 2.05.66 2.9 8.98 2.9 8.98s8.71 4.38 10.16 14.9c.96 7-.57 11.17-1.85 13.31a8.63 8.63 0 0 0-1.16 5.24c.33 3.4.9 8.77 1.67 13.2 0 0 10.2 11.86-2.58 22.9 0 0 4.68 4.23 1.9 6.12Z"/><path fill="#E9EDF4" d="M48.07 85.3c0 3.96 6.9 7.3 4.04 9.45l-23.53.28c-.33-.17-.5-.28-.5-.28s1.79-2.98 1.36-12.21c0 0-.86-10.66 7.47-10.8 8.32-.15 11.16 7.22 11.16 13.55Z"/><ellipse cx="35.95" cy="46.65" fill="#E9EDF4" rx="8.89" ry="6.44"/><path fill="#232323" d="M15.95 56.93c-1.52.21-4.14.36-6.23-.58a8.49 8.49 0 0 0-1.18-3.99c-.13-.22-.27-.47-.4-.74.13.23 2.3 3.59 7.83 4.86.26.05.24.42-.02.45ZM55.96 56.93c1.52.21 4.14.36 6.23-.58.06-1.4.46-2.78 1.18-3.99.14-.22.27-.47.4-.74-.13.23-2.3 3.59-7.83 4.86-.25.05-.24.42.02.45Z" opacity=".2"/><path fill="#fff" d="M54.68 24.14s-.85-8.31-2.9-8.97c-2.04-.65-6.26 6.65-6.26 6.65-4.3-1.12-9.76-1.08-9.76-1.08s-5.46-.04-9.75 1.08c0 0-4.22-7.3-6.27-6.65-2.05.66-2.9 8.97-2.9 8.97s-7.03 3.54-9.5 11.9c.17-.37 4.1-8.29 10.78-11.05 0 0 .79-7.93 1.92-8.4.9-.37 3.63 3.97 4.72 5.78.28.46.81.71 1.35.63 1.74-.26 5.8-.8 9.66-.8 3.85 0 7.91.54 9.66.8.53.08 1.06-.17 1.34-.63 1.09-1.81 3.82-6.15 4.72-5.78 1.13.46 1.92 8.4 1.92 8.4 6.68 2.76 10.6 10.68 10.79 11.05-2.48-8.36-9.52-11.9-9.52-11.9Z" opacity=".6"/><path fill="#FF99B9" d="M22.96 22.8s-1.34-1.51-1.5.47c0 0-1.43-1.17-1.66.74l-1.42.35a.41.41 0 0 1-.51-.43c.17-1.63.76-6.23 2.22-7.88l.3.54c.7 1.26 1.74 3.4 2.57 6.22Z"/><path fill="#232323" d="M22.96 22.8s-1.34-1.51-1.5.47c0 0-1.43-1.17-1.66.74-.9-3.14.46-7.03.6-7.42.7 1.26 1.73 3.4 2.56 6.22Z" opacity=".2"/><path fill="#232323" d="M20.23 15.95c.38.52.68 1.05.99 1.6a26.85 26.85 0 0 1 1.53 3.38l.32.88.3.88a.42.42 0 0 1-.27.54.42.42 0 0 1-.43-.1l-.04-.03c-.1-.1-.25-.23-.37-.3a.65.65 0 0 0-.17-.08h-.04c.02 0 .04-.02.02 0a.42.42 0 0 0-.07.13 2.3 2.3 0 0 0-.08.35v.06l-.01.04c0-.04 0 .1-.06.17a.45.45 0 0 1-.49.23.48.48 0 0 1-.18-.08l-.01-.01c-.12-.1-.26-.2-.39-.25a.6.6 0 0 0-.17-.05.23.23 0 0 0-.08-.02h-.06c-.09.01-.2.1-.3.23l-.14.23-.14.27h-.01a.1.1 0 0 1-.17-.02l-.04-.33c0-.1 0-.22.03-.34.04-.12.07-.24.15-.35l.06-.09.08-.08.08-.08.1-.06.1-.06.12-.03a.84.84 0 0 1 .23-.04c.15 0 .28.02.41.05.26.06.47.17.67.31l.02.02a.45.45 0 0 0-.4-.07.44.44 0 0 0-.25.21c-.05.07-.06.21-.05.17v-.13a2.97 2.97 0 0 1 .1-.53c.05-.13.1-.26.2-.4a.9.9 0 0 1 .5-.34c.21-.06.4-.02.55.03.15.05.27.12.37.2.21.14.37.28.54.47l-.74.41-.24-.88-.26-.87a41.08 41.08 0 0 0-1.27-3.42c-.24-.55-.5-1.1-.82-1.61v-.01a.17.17 0 0 1 .05-.23.16.16 0 0 1 .23.03Z"/><path fill="#FF99B9" d="M48.57 22.8s1.34-1.51 1.49.47c0 0 1.43-1.17 1.66.74l1.43.35c.27.07.53-.15.5-.43-.16-1.63-.75-6.23-2.21-7.88l-.31.54a31.05 31.05 0 0 0-2.56 6.22Z"/><path fill="#232323" d="M48.57 22.8s1.34-1.51 1.49.47c0 0 1.43-1.17 1.66.74.91-3.14-.45-7.03-.6-7.42a31.18 31.18 0 0 0-2.55 6.22Z" opacity=".2"/><path fill="#232323" d="M51.57 16.15c-.3.5-.57 1.06-.82 1.61a27.08 27.08 0 0 0-1.27 3.42l-.26.87-.24.88-.73-.4c.16-.2.32-.34.53-.49.1-.07.22-.14.37-.19a.88.88 0 0 1 1.05.3c.1.15.16.28.2.4a1.86 1.86 0 0 1 .1.54v.13c0 .04 0-.1-.04-.17a.43.43 0 0 0-.26-.21.43.43 0 0 0-.23-.01.42.42 0 0 0-.17.08l.02-.02c.2-.14.42-.24.67-.31.13-.03.27-.06.42-.05.07 0 .15.02.22.04l.12.04.1.05.1.06.08.08.08.08.06.09c.08.12.11.23.15.35.03.12.03.23.04.34l-.05.33a.1.1 0 0 1-.17.03l-.15-.27-.14-.24c-.1-.14-.21-.22-.3-.22a.2.2 0 0 1-.03-.01H51c-.02 0-.05 0-.07.02a.78.78 0 0 0-.18.05c-.12.06-.27.15-.39.25a.46.46 0 0 1-.42.07.44.44 0 0 1-.26-.2c-.05-.08-.06-.22-.05-.18v-.04l-.02-.06-.02-.13a2.3 2.3 0 0 0-.06-.22.48.48 0 0 0-.06-.13c-.02-.02 0 0 .01 0h-.04a.68.68 0 0 0-.16.08c-.13.07-.27.2-.38.3l-.03.03a.43.43 0 0 1-.7-.44l.3-.88.31-.87a27.78 27.78 0 0 1 1.54-3.4c.3-.54.61-1.07.99-1.58a.17.17 0 0 1 .23-.04c.07.05.09.15.05.22v.02ZM39.14 42.06c-.13-1.45-3.38-1.37-3.38-1.37s-3.25-.08-3.37 1.37c-.1 1.08 1.83 1.85 2.82 2.18.36.11.75.11 1.1 0 1-.33 2.92-1.1 2.83-2.18ZM12.6 43.78a28.25 28.25 0 0 0-5.78-1.4c-.97-.15-1.95-.21-2.94-.22h-.74l-.74.04-.37.01-.38.05-.75.06a.13.13 0 0 1-.06-.25l.73-.23.37-.11.38-.08.76-.15.77-.08c.13 0 .26-.03.4-.03h.38c.26 0 .52-.02.77 0l.78.05c.25.01.5.05.77.09 1.02.15 2.02.38 3 .72.96.34 1.9.75 2.78 1.3.06.04.08.12.04.18a.13.13 0 0 1-.15.05h-.01ZM13.4 48.07a20.59 20.59 0 0 0-5.21 1.32c-.83.34-1.64.72-2.41 1.18-.4.22-.77.47-1.15.72-.2.11-.37.26-.55.39l-.57.4a.13.13 0 0 1-.19-.04.13.13 0 0 1 .01-.15 10 10 0 0 1 2.05-1.93c.37-.3.8-.52 1.2-.77.2-.11.42-.2.63-.31l.32-.15c.11-.05.22-.1.34-.13.44-.18.89-.33 1.34-.46l.7-.16c.22-.06.46-.09.69-.13a9.6 9.6 0 0 1 2.82-.04c.07.01.12.08.1.15 0 .06-.05.1-.1.1h-.01ZM58.8 43.56c.87-.56 1.82-.97 2.79-1.3a16.4 16.4 0 0 1 3-.73c.25-.03.5-.07.76-.09l.78-.05H67.29c.13 0 .26.03.39.04l.77.07.76.15.38.08.37.11c.25.07.49.15.73.24.07.02.1.1.08.16a.13.13 0 0 1-.13.09h-.01l-.75-.07-.37-.04-.38-.02-.74-.04h-.74a27.6 27.6 0 0 0-5.86.78c-.96.24-1.92.52-2.86.85h-.01a.13.13 0 0 1-.17-.08.13.13 0 0 1 .05-.15ZM58.1 47.81c.95-.14 1.9-.1 2.83.04.23.04.46.07.7.13l.69.16a14.12 14.12 0 0 1 1.67.58l.32.16.64.31c.4.25.82.47 1.2.76.78.54 1.45 1.22 2.05 1.94.04.05.03.14-.02.18a.13.13 0 0 1-.15 0h-.01l-.57-.4c-.18-.12-.36-.27-.56-.38-.38-.25-.75-.5-1.14-.72a17.88 17.88 0 0 0-4.96-2.02c-.87-.22-1.77-.38-2.67-.48h-.01a.13.13 0 0 1-.11-.15c0-.05.05-.1.1-.1Z"/><path stroke="#232323" stroke-linecap="round" stroke-linejoin="round" stroke-width=".8" d="M38.9 47.27s-.82 1.47-3.26 1.47c-2.45 0-3.28-1.47-3.28-1.47"/><ellipse cx="35.76" cy="41.61" fill="#fff" rx="1.49" ry=".33"/><path fill="#fff" d="M29.1 37.96c0 2.9-1.95 5.36-4.62 6.12-3.51-2.66-6.85-2.3-6.85-2.3a6.37 6.37 0 1 1 11.46-3.81Z"/><circle cx="25.24" cy="38.31" r=".98" fill="#232323"/><path stroke="#232323" stroke-linecap="round" stroke-linejoin="round" stroke-width=".87" d="M29.1 37.96c0 2.9-1.95 5.36-4.62 6.12-3.51-2.66-6.85-2.3-6.85-2.3a6.37 6.37 0 1 1 11.46-3.81Z" clip-rule="evenodd"/><path fill="#fff" d="M42.43 37.96c0 2.9 1.95 5.36 4.61 6.12 3.52-2.66 6.85-2.3 6.85-2.3a6.37 6.37 0 1 0-11.46-3.81Z"/><circle cx="46.28" cy="38.31" r=".98" fill="#232323"/><path stroke="#232323" stroke-linecap="round" stroke-linejoin="round" stroke-width=".87" d="M42.43 37.96c0 2.9 1.95 5.36 4.61 6.12 3.52-2.66 6.85-2.3 6.85-2.3a6.37 6.37 0 1 0-11.46-3.81Z" clip-rule="evenodd"/><path stroke="#232323" stroke-linecap="round" stroke-linejoin="round" stroke-width=".87" d="M35.76 95.03h13.25c3.15 3.04 10.88 6.8 13.82 4.8 2.77-1.9-1.9-6.14-1.9-6.14C73.7 82.66 63.5 70.8 63.5 70.8c-.77-4.44-1.34-9.8-1.66-13.2a8.63 8.63 0 0 1 1.15-5.24c1.28-2.15 2.81-6.32 1.85-13.32-1.44-10.51-10.15-14.9-10.15-14.9s-.86-8.31-2.9-8.97c-2.05-.66-6.27 6.65-6.27 6.65-4.3-1.12-9.75-1.08-9.75-1.08S30.3 20.7 26 21.82c0 0-4.22-7.3-6.26-6.65-2.05.66-2.9 8.97-2.9 8.97s-8.72 4.38-10.16 14.9c-.96 7 .57 11.17 1.85 13.32a8.64 8.64 0 0 1 1.15 5.24c-.32 3.4-.89 8.76-1.66 13.2 0 0-10.2 11.86 2.58 22.9 0 0-4.68 4.23-1.9 6.13 2.93 2 10.66-1.76 13.8-4.8h13.26"/><path fill="#BCC2D3" d="M24.96 70.85s4.5-16.12-2.4-18.18c-6.9-2.05-10.48 14.73-10.48 14.73s3.25 3.72 6.06 4.47c2.8.76 6.82-1.02 6.82-1.02Z"/><path fill="#232323" d="M22.46 53.85c5.22 1.56 3.9 11.19 2.95 15.76l.09-.04S30 53.46 23.1 51.4c-6.21-1.85-9.74 11.58-10.38 14.26 1.4-4.7 4.67-13.32 9.73-11.81Z" opacity=".2"/><path fill="#232323" d="M24.74 70.79c.38-1.6.68-3.21.9-4.83.23-1.62.38-3.25.38-4.88a15.48 15.48 0 0 0-.63-4.75 6.05 6.05 0 0 0-1.08-2.02 3.82 3.82 0 0 0-4-1.2c-.7.23-1.34.68-1.91 1.22-.57.54-1.07 1.16-1.52 1.83-.45.66-.86 1.36-1.23 2.08a35.37 35.37 0 0 0-1.91 4.5 52.12 52.12 0 0 0-1.44 4.7.22.22 0 0 1-.44-.1 40.55 40.55 0 0 1 3.1-9.45c.37-.75.77-1.49 1.24-2.19s1-1.38 1.62-1.98a6.02 6.02 0 0 1 2.22-1.43 4.34 4.34 0 0 1 2.7-.02c.86.26 1.65.8 2.23 1.48.58.69.96 1.5 1.22 2.31.27.83.42 1.67.5 2.5.1.85.12 1.69.1 2.53-.1 3.34-.7 6.62-1.62 9.81a.22.22 0 0 1-.27.16.22.22 0 0 1-.16-.27Z"/><path fill="#232323" d="M23.3 56.32a18.43 18.43 0 0 0 .24-2.74.43.43 0 1 1 .88-.01l-.01.07a19.8 19.8 0 0 1-.74 2.78.19.19 0 0 1-.24.11.19.19 0 0 1-.13-.2ZM19.73 55.37a19.8 19.8 0 0 1 .75-2.78.44.44 0 1 1 .78.37 18.6 18.6 0 0 0-1.17 2.5.19.19 0 0 1-.24.11.18.18 0 0 1-.12-.2Z"/><path fill="#BCC2D3" d="M61.25 66.38s-4.44-16.13-11.4-14.34c-6.98 1.79-1.41 18.02-1.41 18.02s4.7 1.52 7.5.72c2.79-.8 5.3-4.4 5.3-4.4Z"/><path fill="#232323" d="M49.94 53.2c5.29-1.35 9.11 7.59 10.66 12l.05-.08s-4.44-16.14-11.4-14.35c-6.29 1.62-2.4 14.95-1.56 17.57-1.23-4.75-2.86-13.82 2.25-15.13Z" opacity=".2"/><path fill="#232323" d="M60.98 66.27a50.2 50.2 0 0 0-1.71-4.6 35.02 35.02 0 0 0-2.2-4.38 15.49 15.49 0 0 0-2.98-3.75c-.6-.5-1.25-.94-1.96-1.17a3.82 3.82 0 0 0-4.05 1.03c-.48.56-.8 1.28-1.01 2.03-.21.75-.32 1.55-.36 2.35-.05.8-.03 1.6.02 2.42.1 1.62.35 3.24.68 4.84.31 1.6.72 3.2 1.18 4.77a.22.22 0 0 1-.42.14 40.56 40.56 0 0 1-2.21-9.7c-.07-.83-.1-1.67-.07-2.52.04-.84.14-1.69.36-2.53.23-.83.59-1.66 1.18-2.36a4.34 4.34 0 0 1 2.3-1.41 4.7 4.7 0 0 1 2.67.12c.85.29 1.6.78 2.25 1.35.65.57 1.2 1.21 1.72 1.89.5.67.96 1.38 1.37 2.11a39.76 39.76 0 0 1 3.67 9.25.22.22 0 0 1-.16.27.22.22 0 0 1-.26-.15Z"/><path fill="#232323" d="M52.3 54.61a18.44 18.44 0 0 0-1.2-2.48.43.43 0 1 1 .73-.45l.04.06a19.77 19.77 0 0 1 .8 2.77c.01.1-.05.2-.15.22a.19.19 0 0 1-.22-.12ZM48.75 55.63a19.76 19.76 0 0 1-.8-2.77.43.43 0 1 1 .87-.08 18.52 18.52 0 0 0 .29 2.74v.01c.02.1-.05.2-.15.22a.18.18 0 0 1-.21-.12Z"/></g><path stroke="#232323" stroke-linecap="round" stroke-width=".91" d="m35.77 43.54-.04 4.73"/></svg>