<svg xmlns="http://www.w3.org/2000/svg" fill="none" viewBox="0 0 104 104"><circle cx="52" cy="52" r="52" fill="#F0EEF0"/><mask id="a" width="104" height="104" x="0" y="0" maskUnits="userSpaceOnUse" style="mask-type:alpha"><circle cx="52" cy="52" r="52" fill="#B905EA"/></mask><g mask="url(#a)"><path fill="#fff" d="M64.18 12.4h-.51v-.52a.99.99 0 0 0-1.98 0v.51h-.51a.99.99 0 0 0 0 1.98h.51v.51a.99.99 0 1 0 1.98 0v-.51h.5a.99.99 0 1 0 0-1.98ZM16.06 24.07h-.51v-.51a.99.99 0 1 0-1.98 0v.5h-.51a.99.99 0 0 0 0 1.99h.51v.5a.99.99 0 1 0 1.98 0v-.5h.51a.99.99 0 1 0 0-1.98ZM90.98 19.66h-1a1.27 1.27 0 0 1-1.27-1.27v-1a1.27 1.27 0 0 0-2.54 0v1a1.27 1.27 0 0 1-1.26 1.26h-1a1.27 1.27 0 0 0 0 2.54h1a1.27 1.27 0 0 1 1.26 1.27v1a1.27 1.27 0 0 0 2.54 0v-1a1.27 1.27 0 0 1 1.27-1.26h1a1.27 1.27 0 0 0 0-2.54Zm-3.54 1.9-.63-.63.63-.64.64.64-.64.63ZM43.88 10.37h-1a1.27 1.27 0 0 1-1.26-1.27v-1a1.27 1.27 0 0 0-2.54 0v1a1.27 1.27 0 0 1-1.27 1.27h-1a1.27 1.27 0 1 0 0 2.54h1a1.27 1.27 0 0 1 1.26 1.26v1a1.27 1.27 0 0 0 2.54 0v-.99a1.27 1.27 0 0 1 1.26-1.27h1.01a1.27 1.27 0 0 0 0-2.54Zm-3.54 1.9-.63-.63.63-.63.64.63-.64.64ZM55 5.52h-.05a1.44 1.44 0 0 1-1.43-1.44.9.9 0 0 0-.48-.79.8.8 0 0 0-.63-.03.83.83 0 0 0-.55.78v.04a1.44 1.44 0 0 1-1.43 1.44.91.91 0 0 0-.6.22.8.8 0 0 0-.05 1.18.83.83 0 0 0 .6.26h.05a1.43 1.43 0 0 1 1.43 1.43c0 .22.08.43.23.6a.81.81 0 0 0 1.17.05.83.83 0 0 0 .26-.6V8.6a1.44 1.44 0 0 1 1.44-1.43c.21 0 .43-.08.6-.23a.8.8 0 0 0 .04-1.17.83.83 0 0 0-.6-.26Zm-2.3 1.57a.75.75 0 1 1 0-1.5.75.75 0 0 1 0 1.5Z"/><g filter="url(#b)"><path fill="#BCC2D3" d="M17.8 125.24c-9.12 4.65-21.96 2.27-27.98-10.57-2.36-5.03-3.09-10.46-3.06-15.3A53.1 53.1 0 0 1-12.2 89.3a9.47 9.47 0 0 1 7.15-7.42 8.11 8.11 0 0 1 8.07 2.31 9.4 9.4 0 0 1 1.84 10.12c-.9 2.18-1.93 5.2-2.45 8.6-.5 3.13-.56 6.59.31 9.97 2.75 10.67 12.1 6.34 12.1 6.34l2.98 6.02Z"/><path fill="#E9EDF4" d="M4.86 94.3c-.9 2.19-1.93 5.21-2.46 8.6-9.02 4.25-13.7-.46-15.64-3.53.01-3.92.52-7.45 1.04-10.07a9.47 9.47 0 0 1 7.15-7.42 8.11 8.11 0 0 1 8.07 2.31 9.4 9.4 0 0 1 1.84 10.12Z"/><path fill="#232323" d="M-7.79 112.7c-2.22-4.73-2.9-9.84-2.88-14.38.02-3.7.5-7.01.99-9.48a8.9 8.9 0 0 1 7.82-7.15A9.48 9.48 0 0 0-12.2 89.3a52.89 52.89 0 0 0-1.05 10.07c-.02 4.84.7 10.27 3.06 15.3 6.03 12.84 18.86 15.22 27.99 10.57l-.92-1.85c-8.42 3.31-19.37.64-24.68-10.69Z" opacity=".2"/><path fill="#fff" d="M1.19 84.25a9.4 9.4 0 0 1 1.83 10.12c-.89 2.18-1.92 5.2-2.45 8.6-.5 3.14-.55 6.59.32 9.97 1.74 6.79 6.17 7.5 9.15 7.13-2.74-.18-5.9-1.7-7.32-7.2-.87-3.37-.8-6.83-.31-9.97a38.88 38.88 0 0 1 2.45-8.6A9.4 9.4 0 0 0 3.02 84.2a8 8 0 0 0-7.1-2.47 8.02 8.02 0 0 1 5.27 2.53Z" opacity=".6"/><path stroke="#232323" stroke-linecap="round" stroke-linejoin="round" stroke-width="1.19" d="M14.81 119.22s-9.35 4.33-12.1-6.34c-1.8-7.03.41-14.37 2.15-18.57a9.4 9.4 0 0 0-1.84-10.12 8.1 8.1 0 0 0-8.06-2.3 9.47 9.47 0 0 0-7.15 7.41c-1.18 5.86-2.26 16.26 2.01 25.37 6.03 12.84 18.86 15.22 27.99 10.57l-3-6.02Z" clip-rule="evenodd"/><path fill="#BCC2D3" d="M89.14 137.25c-4.01 2.76-14.58-2.39-18.88-6.55H34.04c-4.3 4.16-14.87 9.3-18.89 6.56-2.16-1.48-1-4 .39-5.9a18.52 18.52 0 0 1 2.22-2.49C.28 113.8 14.24 97.58 14.24 97.58c1.05-6.06 1.83-13.4 2.27-18.04a11.58 11.58 0 0 0-1.57-7.16 16.68 16.68 0 0 1-.57-1.03c-1.6-3.15-3.14-8.62-1.97-17.18.2-1.45.5-2.81.88-4.1 2.67-9 9.22-13.92 11.87-15.6.7-.45 1.14-.66 1.14-.66s1.16-11.36 3.96-12.26c2.8-.9 8.56 9.09 8.56 9.09 5.87-1.54 13.34-1.48 13.34-1.48s7.47-.06 13.34 1.48c0 0 5.75-10 8.56-9.1 2.8.9 3.96 12.27 3.96 12.27s11.9 5.99 13.88 20.36c1.32 9.57-.77 15.27-2.53 18.2a11.79 11.79 0 0 0-1.57 7.17c.44 4.65 1.22 11.98 2.27 18.04 0 0 13.95 16.2-3.52 31.3 0 0 6.4 5.79 2.6 8.38Z"/><path fill="#E9EDF4" d="M52.41 73.38c6.72 0 12.16-3.94 12.16-8.8 0-4.87-5.44-8.81-12.16-8.81-6.71 0-12.15 3.94-12.15 8.8 0 4.87 5.44 8.81 12.15 8.81ZM52.15 123.93a21.28 21.28 0 1 0 0-42.55 21.28 21.28 0 0 0 0 42.55Z"/><path fill="#232323" d="M25.07 78.63c-2.08.28-5.66.48-8.52-.8-.09-1.92-.63-3.8-1.62-5.45-.18-.3-.37-.64-.55-1 .19.3 3.15 4.9 10.71 6.62.35.08.33.58-.02.63ZM79.76 78.63c2.07.28 5.65.48 8.52-.8.08-1.92.62-3.8 1.61-5.45.18-.3.37-.64.56-1-.2.3-3.16 4.9-10.72 6.62-.35.08-.32.58.03.63Z" opacity=".2"/><path fill="#fff" d="M78.01 33.8s-1.16-11.36-3.96-12.25c-2.8-.9-8.56 9.09-8.56 9.09-5.87-1.53-13.34-1.48-13.34-1.48s-7.47-.05-13.34 1.48c0 0-5.76-9.99-8.56-9.1-2.8.9-3.96 12.27-3.96 12.27s-9.62 4.84-13 16.26c.24-.5 5.6-11.33 14.74-15.1 0 0 1.08-10.85 2.62-11.48 1.24-.5 4.97 5.42 6.46 7.9.38.62 1.1.97 1.83.86a97.09 97.09 0 0 1 13.2-1.08c5.28 0 10.83.72 13.21 1.08.74.1 1.46-.24 1.84-.87 1.49-2.47 5.22-8.4 6.45-7.9 1.55.64 2.63 11.5 2.63 11.5 9.14 3.76 14.5 14.59 14.74 15.09-3.38-11.42-13-16.26-13-16.26Z" opacity=".6"/><path fill="#FF99B9" d="M34.72 31.62s-1.81-2.05-2.02.62c0 0-1.93-1.58-2.24 1l-1.92.47a.55.55 0 0 1-.68-.59c.22-2.2 1.02-8.39 3-10.61.12.21.26.45.4.73a41.95 41.95 0 0 1 3.46 8.38Z"/><path fill="#232323" d="M34.72 31.62s-1.81-2.05-2.02.62c0 0-1.93-1.58-2.24 1-1.23-4.23.62-9.48.8-10a41.96 41.96 0 0 1 3.46 8.38Z" opacity=".2"/><path fill="#232323" d="M31.03 22.38c.52.69.93 1.4 1.34 2.14a35.77 35.77 0 0 1 2.07 4.57l.43 1.18.4 1.19a.57.57 0 0 1-.95.59l-.04-.04c-.14-.14-.34-.3-.5-.4-.17-.12-.35-.13-.29-.12.03 0 .05-.03.03 0a.62.62 0 0 0-.09.18 2.3 2.3 0 0 0-.08.3l-.03.17v.09l-.01.04c0-.05 0 .14-.07.24a.6.6 0 0 1-.67.3.6.6 0 0 1-.24-.1v-.01l-.02-.01a2.38 2.38 0 0 0-.52-.33.85.85 0 0 0-.42-.1c-.12.02-.27.12-.4.31l-.19.31a3.8 3.8 0 0 1-.2.36v.01a.12.12 0 0 1-.17.04.13.13 0 0 1-.06-.08c-.03-.14-.05-.29-.06-.44 0-.15.01-.3.05-.46.07-.3.25-.67.63-.9l.14-.07.15-.05c.1-.03.2-.04.3-.05.21-.01.4.02.57.06.34.1.62.24.9.43l.03.02a.57.57 0 0 0-.23-.1.59.59 0 0 0-.65.3c-.06.09-.08.28-.07.22v-.06l.01-.11c0-.08.02-.16.03-.23.02-.16.05-.32.1-.5.06-.16.13-.34.27-.53.14-.2.38-.39.67-.46.29-.07.55-.02.74.04.2.07.36.16.5.26.29.2.5.4.72.65l-1 .55-.31-1.19-.36-1.17a51.93 51.93 0 0 0-1.7-4.61c-.34-.74-.7-1.5-1.11-2.17l-.01-.02a.22.22 0 0 1 .07-.3c.1-.06.23-.03.3.06Z"/><path fill="#FF99B9" d="M70.1 31.62s1.82-2.05 2.02.62c0 0 1.93-1.58 2.24 1l1.92.47c.37.1.72-.2.69-.59-.23-2.2-1.02-8.4-3-10.61l-.41.73a41.95 41.95 0 0 0-3.45 8.38Z"/><path fill="#232323" d="M70.1 31.62s1.82-2.05 2.02.62c0 0 1.93-1.58 2.24 1 1.23-4.24-.62-9.48-.8-10a41.95 41.95 0 0 0-3.45 8.38Z" opacity=".2"/><path fill="#232323" d="M74.16 22.64c-.42.68-.78 1.43-1.11 2.17a36.46 36.46 0 0 0-1.71 4.6l-.35 1.19-.33 1.18-.99-.54c.23-.26.43-.46.72-.66.14-.09.3-.18.5-.25s.45-.12.74-.05c.3.07.54.27.67.46.14.19.21.37.27.54a2.73 2.73 0 0 1 .13.72l.01.12v.05c0 .06 0-.13-.07-.23a.58.58 0 0 0-.34-.28.57.57 0 0 0-.3-.01c-.1.02-.2.08-.24.1l.03-.02c.28-.19.56-.33.9-.43.18-.04.36-.07.57-.06.1.01.2.02.3.06l.15.04.15.08c.37.22.55.58.63.89.03.16.04.31.05.46l-.07.45a.12.12 0 0 1-.14.09.14.14 0 0 1-.08-.06 3.83 3.83 0 0 1-.2-.37c-.08-.1-.14-.21-.2-.3-.13-.2-.28-.3-.4-.32a.82.82 0 0 0-.41.1c-.18.07-.37.2-.53.33h-.01v.01a.62.62 0 0 1-.56.1.6.6 0 0 1-.35-.29c-.07-.1-.08-.3-.07-.24l-.01-.04-.01-.1-.03-.16-.08-.3a.62.62 0 0 0-.08-.18c-.03-.03 0 0 .02 0 .06-.01-.11 0-.28.11-.17.1-.36.26-.5.4l-.05.05a.57.57 0 0 1-.95-.6l.4-1.18.44-1.18a39.98 39.98 0 0 1 2.06-4.57c.41-.73.83-1.45 1.34-2.14.08-.1.22-.12.32-.05.1.07.11.2.05.3ZM56.76 58.3c-.17-1.98-4.61-1.87-4.61-1.87s-4.44-.1-4.62 1.87c-.13 1.47 2.51 2.53 3.85 2.97.5.17 1.03.17 1.52 0 1.35-.44 4-1.5 3.86-2.97ZM20.5 60.66a41.96 41.96 0 0 0-7.9-1.93c-1.34-.2-2.69-.28-4.03-.3H7.55l-1.01.06-.51.02-.5.06-1.03.1h-.02a.18.18 0 0 1-.19-.17c0-.08.05-.16.12-.18.33-.12.66-.22 1-.33l.5-.15.52-.1 1.04-.2 1.06-.1c.17-.02.35-.05.53-.05h.52c.36 0 .71-.03 1.06 0l1.06.06c.35.03.7.08 1.05.13 1.4.2 2.77.52 4.1.98a17.9 17.9 0 0 1 3.8 1.78.18.18 0 0 1-.15.32ZM21.6 66.5a27.88 27.88 0 0 0-7.15 1.81c-1.13.46-2.23 1-3.28 1.62-.54.3-1.05.64-1.57.98-.27.16-.5.36-.76.54l-.77.54h-.01a.17.17 0 0 1-.25-.04.18.18 0 0 1 .01-.21c.8-.99 1.73-1.91 2.8-2.65.5-.4 1.08-.7 1.64-1.04.28-.16.58-.28.87-.43l.44-.21.45-.18c.6-.24 1.21-.44 1.84-.62l.94-.22c.31-.08.64-.12.95-.17 1.28-.2 2.57-.25 3.86-.06.1.01.16.1.15.2a.18.18 0 0 1-.15.15h-.02ZM83.64 60.34a18.1 18.1 0 0 1 3.8-1.78c1.33-.46 2.7-.78 4.1-.98.35-.05.7-.1 1.06-.13l1.05-.07c.35-.02.7 0 1.06 0h.53l.53.05 1.05.1 1.04.2.52.11.5.15c.34.1.68.21 1 .33a.18.18 0 0 1-.06.34h-.02l-1.02-.1c-.17 0-.34-.03-.5-.05l-.52-.02-1.01-.06h-1.02c-1.35.02-2.69.1-4.02.3a41.73 41.73 0 0 0-7.9 1.92h-.01a.18.18 0 0 1-.23-.1.17.17 0 0 1 .07-.2ZM82.69 66.16c1.29-.2 2.58-.13 3.86.06.31.05.64.1.95.17l.94.22c.63.18 1.24.38 1.84.62l.45.18.44.21c.3.14.59.27.87.43.56.34 1.13.64 1.64 1.04 1.07.74 1.99 1.66 2.8 2.65.06.07.05.19-.03.25a.17.17 0 0 1-.2 0h-.02l-.77-.54c-.25-.18-.49-.38-.76-.54-.52-.34-1.03-.68-1.57-.98a25.06 25.06 0 0 0-6.78-2.76 27.9 27.9 0 0 0-3.64-.66h-.02a.17.17 0 0 1-.15-.2.18.18 0 0 1 .15-.15Z"/><path fill="#fff" d="M52.15 58.13c1.17 0 2.11-.21 2.11-.47 0-.27-.94-.48-2.1-.48-1.17 0-2.12.21-2.12.48 0 .26.95.47 2.11.47ZM34.33 61.4a8.7 8.7 0 1 0 0-17.41 8.7 8.7 0 0 0 0 17.4Z"/><path fill="#232323" d="M38.72 51.42a1.34 1.34 0 1 0 0-2.67 1.34 1.34 0 0 0 0 2.67Z"/><path stroke="#232323" stroke-linecap="round" stroke-linejoin="round" stroke-width="1.19" d="M34.33 61.4a8.7 8.7 0 1 0 0-17.41 8.7 8.7 0 0 0 0 17.4Z"/><path fill="#fff" d="M69.97 61.4a8.7 8.7 0 1 0 0-17.41 8.7 8.7 0 0 0 0 17.4Z"/><path fill="#232323" d="M74.36 51.42a1.34 1.34 0 1 0 0-2.67 1.34 1.34 0 0 0 0 2.67Z"/><path stroke="#232323" stroke-linecap="round" stroke-linejoin="round" stroke-width="1.19" d="M69.97 61.4a8.7 8.7 0 1 0 0-17.41 8.7 8.7 0 0 0 0 17.4Z"/><path fill="#232323" d="M25.44 43.81a8.53 8.53 0 0 1 2.84-2.56l.68-.37.72-.3c.24-.09.48-.19.73-.26 1-.3 2.03-.44 3.06-.42a8.8 8.8 0 0 1 3 .56c.11.04.17.16.13.28a.22.22 0 0 1-.22.13c-.98-.06-1.93-.06-2.87.04-.93.1-1.85.28-2.74.57l-.66.22c-.22.08-.44.18-.65.27l-.64.3-.62.32c-.83.45-1.6.99-2.38 1.58a.26.26 0 0 1-.37-.05.27.27 0 0 1-.01-.3ZM78.47 44.17a18.8 18.8 0 0 0-2.37-1.58c-.22-.1-.42-.22-.63-.33l-.63-.3-.65-.26-.67-.22a13.7 13.7 0 0 0-2.74-.57c-.94-.1-1.9-.1-2.87-.04a.21.21 0 0 1-.23-.2c0-.1.05-.18.14-.2a8.82 8.82 0 0 1 3-.57c1.03-.02 2.07.13 3.06.43.25.07.5.17.74.25l.71.3.69.37a8.48 8.48 0 0 1 2.84 2.56c.08.13.04.3-.08.37a.27.27 0 0 1-.3 0Z"/><path fill="#FF738B" d="M54.26 68.22s.89 3.7 3.6 3.06c2.46-.59 2.45-3.74-.57-5.1 0 0-1.13 1.6-3.03 2.04Z"/><path fill="#232323" d="M56.05 67.22a4.78 4.78 0 0 1 1.68 2 .24.24 0 0 1-.15.32c-.09.03-.19 0-.25-.06l-.01-.01c-.14-.15-.27-.3-.41-.43a8.08 8.08 0 0 0-.42-.41c-.14-.14-.3-.26-.44-.39l-.44-.35-.02-.01a.4.4 0 0 1 .46-.66Z"/><path stroke="#232323" stroke-linecap="round" stroke-linejoin="round" stroke-width="1.25" d="M54.26 68.22s.89 3.7 3.6 3.06c2.46-.59 2.45-3.74-.57-5.1 0 0-1.13 1.6-3.03 2.04Z" clip-rule="evenodd"/><path stroke="#232323" stroke-linecap="round" stroke-linejoin="round" stroke-width="1.25" d="M57.3 66.18s-1.3 2.3-5.15 2.3c-3.84 0-5.14-2.3-5.14-2.3"/><path stroke="#232323" stroke-linecap="round" stroke-linejoin="round" stroke-width="1.19" d="M52.14 130.7h18.12c4.3 4.16 14.87 9.3 18.89 6.56 3.78-2.6-2.61-8.39-2.61-8.39 17.47-15.08 3.52-31.29 3.52-31.29a252.2 252.2 0 0 1-2.27-18.04c-.24-2.5.29-5.02 1.57-7.16 1.75-2.93 3.85-8.63 2.53-18.2C89.92 39.8 78.01 33.8 78.01 33.8s-1.16-11.37-3.97-12.26c-2.8-.9-8.56 9.09-8.56 9.09-5.87-1.54-13.33-1.48-13.33-1.48s-7.47-.05-13.34 1.48c0 0-5.76-10-8.56-9.1-2.8.9-3.97 12.27-3.97 12.27S14.38 39.8 12.4 54.17c-1.31 9.58.78 15.27 2.53 18.2a11.8 11.8 0 0 1 1.58 7.17 252.2 252.2 0 0 1-2.28 18.04s-13.95 16.21 3.53 31.3c0 0-6.4 5.79-2.61 8.38 4.01 2.75 14.58-2.4 18.88-6.55h18.12"/><path fill="#FC9E38" d="m73.27 78-2.64 2.1-6.6-9.14-.61-3.77 3.48 1.84 6.37 8.96Z"/><path fill="#FFDAB6" d="M66.9 69.03a3.59 3.59 0 0 1-2.88 1.94l-.6-3.78 3.48 1.84Z"/><path fill="#232323" d="M65.37 68.4s-.12 1.15-1.25 1.05l-.2-1.3 1.45.24Z"/><path stroke="#232323" stroke-linecap="round" stroke-linejoin="round" stroke-width="1.42" d="m70.63 80.1-6.6-9.14-.61-3.77 3.48 1.84 6.37 8.96-2.64 2.12Z" clip-rule="evenodd"/><path fill="#BCC2D3" d="M86.05 87.01s-1.89 5.2-3.63 6.42c-1.75 1.21-5.4 1.64-5.4 1.64s-4.33-4.46-7.08-9.34c-2.17-3.87-3.35-8-.6-10.42 5.87-5.13 13.17 5.7 15.75 10.02.61 1.03.96 1.68.96 1.68Z"/><path fill="#fff" d="M85.09 85.33c-2.03-2-9.7-11.3-13.83-9.13-4.12 2.17-1 9.62-1 9.62l-.32-.09c-2.17-3.87-3.35-8-.6-10.41C75.21 70.19 82.51 81 85.1 85.34Z" opacity=".6"/><path fill="#232323" d="M71.28 73.7a9.3 9.3 0 0 1 2.66 2.33c.08.1.06.27-.05.36a.26.26 0 0 1-.33-.01 7.96 7.96 0 0 0-2.73-1.53.62.62 0 1 1 .44-1.16ZM68.8 75.82a9.29 9.29 0 0 1 2.66 2.33c.08.12.06.28-.06.37a.26.26 0 0 1-.32-.01 7.96 7.96 0 0 0-2.74-1.53.62.62 0 1 1 .44-1.16h.01Z"/><path fill="#232323" d="M76.7 95.39a36.86 36.86 0 0 1-3.97-4.27 40.76 40.76 0 0 1-3.3-4.84 18.77 18.77 0 0 1-2.22-5.54c-.2-1-.25-2.08 0-3.15a5.25 5.25 0 0 1 1.69-2.78 6.05 6.05 0 0 1 2.86-1.44c1.1-.2 2.21-.03 3.2.33.98.36 1.86.9 2.67 1.5.82.6 1.56 1.26 2.25 1.96 1.4 1.4 2.6 2.96 3.72 4.55a32.32 32.32 0 0 1 2.93 5.05c.13.27 0 .6-.27.73a.55.55 0 0 1-.69-.2v-.02c-.5-.8-1.02-1.6-1.54-2.4-.51-.8-1.05-1.57-1.6-2.35a36.14 36.14 0 0 0-3.56-4.36 18.2 18.2 0 0 0-2.07-1.84A9.54 9.54 0 0 0 74.48 75 4.72 4.72 0 0 0 72 74.7a4.6 4.6 0 0 0-2.22 1.11 3.85 3.85 0 0 0-1.24 2.08c-.18.81-.14 1.7.04 2.57a17.51 17.51 0 0 0 2.1 5.1c.93 1.62 2 3.18 3.15 4.7l1.74 2.25 1.78 2.23v.01a.46.46 0 0 1-.66.63Z"/><path fill="#FFF4E9" d="M52.15 83.49H35s3.48 12.68-2.43 24.95c0 0 7.77 2.22 19.58 2.22 11.81 0 19.59-2.22 19.59-2.22-5.92-12.27-2.43-24.95-2.43-24.95H52.15Z"/><path fill="#F2D6BB" d="M70.6 105.78a83.6 83.6 0 0 1-18.45 1.93 83.62 83.62 0 0 1-18.45-1.93A38.06 38.06 0 0 0 36 91.09c-.16-4.55-1-7.6-1-7.6H69.3s-.84 3.05-1 7.6c-.13 4.06.27 9.32 2.3 14.69Z"/><path stroke="#232323" stroke-linecap="round" stroke-linejoin="round" stroke-width="1.19" d="M52.15 83.49H35s3.48 12.68-2.43 24.95c0 0 7.77 2.22 19.58 2.22 11.81 0 19.59-2.22 19.59-2.22-5.92-12.27-2.43-24.95-2.43-24.95H52.15Z" clip-rule="evenodd"/><path fill="#BCC2D3" d="M20.5 89.7s2.72 8.21 12.2 12.11c8.91 3.67 13.6-10.92 5-12.9C29.1 86.95 24.6 83 24.6 83s-2.68 1.83-3.5 3.73c-.8 1.9-.6 2.96-.6 2.96Z"/><path fill="#232323" d="M39.66 89.88s2.33 4.52-.7 8.5c-2.8 3.7-12.65-2.03-17.11-9.96-.43-.75-1.57-.46-1.58.4-.02 1.42.47 3.46 2.47 5.98 4.13 5.18 13.62 10.73 17.52 5.47 3.9-5.26-.6-10.39-.6-10.39Z" opacity=".2"/><path fill="#232323" d="M41.5 96.44a6.07 6.07 0 0 0-1.34-1.24 6.33 6.33 0 0 0-1.66-.88h-.01a.2.2 0 0 1-.12-.26.2.2 0 0 1 .21-.12 6.8 6.8 0 0 1 1.98.55 8.32 8.32 0 0 1 1.82 1.08.62.62 0 1 1-.89.87ZM39.02 100.7a6.06 6.06 0 0 0-1.33-1.24 6.33 6.33 0 0 0-1.66-.88h-.01a.2.2 0 0 1-.12-.26.2.2 0 0 1 .21-.12 6.79 6.79 0 0 1 1.98.55 8.33 8.33 0 0 1 1.82 1.08c.26.22.3.62.09.88a.62.62 0 0 1-.98 0Z"/><path fill="#232323" d="M24.82 82.74c.44.3.92.6 1.39.9.48.29.95.58 1.43.85a36.9 36.9 0 0 0 9.31 3.68l.82.2.88.25c.28.12.57.22.84.36l.4.23c.08.04.15.07.2.12l.2.14.37.28.34.32c.24.2.42.47.62.71.34.52.66 1.07.83 1.67a7.7 7.7 0 0 1 .26 3.62 8.97 8.97 0 0 1-1.25 3.39 7.77 7.77 0 0 1-2.57 2.58 6.55 6.55 0 0 1-3.56.95c-.62 0-1.23-.12-1.82-.27-.3-.07-.58-.2-.87-.29-.15-.04-.28-.1-.41-.17l-.4-.18a22.81 22.81 0 0 1-10.77-9.8 13.3 13.3 0 0 1-.99-2.45.45.45 0 0 1 .85-.31v.03l.36.72.4.73a25.41 25.41 0 0 0 2.78 4.09 21.95 21.95 0 0 0 7.87 5.89c.51.24 1 .43 1.5.57.5.14 1.02.23 1.53.23a5.33 5.33 0 0 0 2.91-.76 6.57 6.57 0 0 0 2.18-2.19c.54-.9.95-1.9 1.1-2.94a6.59 6.59 0 0 0-.18-3.08c-.14-.5-.4-.95-.66-1.37-.17-.2-.3-.41-.5-.58l-.27-.26-.3-.23c-.2-.17-.43-.27-.65-.4-.22-.13-.47-.21-.7-.32l-.76-.22-.84-.21a38.2 38.2 0 0 1-9.54-3.89 17.2 17.2 0 0 1-2.78-2.08.34.34 0 0 1 0-.48c.12-.11.3-.13.43-.04l.02.01Z"/><path fill="#FFF4E9" d="M70.97 88.92c-8.32-1.97-18.82-1.9-18.82-1.9s-10.5-.07-18.82 1.9c0 0-4.93-3.27-1.68-9.46.22-.41.46-.83.75-1.26a3.94 3.94 0 0 1 2.38-1.65c2.44-.57 8.05-1.58 17.37-1.58 9.31 0 14.92 1 17.37 1.58.97.23 1.82.82 2.37 1.65.4.59.71 1.15.97 1.7 2.8 5.9-1.89 9.02-1.89 9.02Z"/><path fill="#F2D6BB" d="M70.97 88.92c-8.32-1.97-18.82-1.9-18.82-1.9s-10.5-.07-18.82 1.9c0 0-4.93-3.27-1.68-9.46 0 0 .01.08.06.23.37 1.08 2.92 5.36 20.43 5.36 20.02 0 20.72-5.15 20.72-5.15 2.8 5.9-1.89 9.02-1.89 9.02Z"/><path fill="#232323" d="m60.45 81.58.96 3.76h-.52l-.44-1.9-.28-1.3h-.01c-.06.37-.18.81-.31 1.3l-.5 1.9h-.51l-.46-1.91c-.1-.45-.2-.9-.26-1.3h-.01c-.08.42-.19.84-.3 1.3l-.5 1.9h-.5l1.07-3.75h.5l.48 1.95c.12.48.2.85.25 1.23.07-.37.16-.74.3-1.23l.53-1.95h.51ZM55.9 85.04c0-.17.12-.3.32-.3.17 0 .3.13.3.3a.3.3 0 0 1-.31.3c-.19 0-.3-.13-.3-.3Zm.55-3.46v2.7h-.49v-2.7h.5ZM55.21 82.08c-.14-.1-.4-.2-.65-.2-.35 0-.52.18-.52.4 0 .24.14.37.5.5.49.18.72.44.72.77 0 .43-.36.79-.94.79-.27 0-.51-.08-.66-.17l.12-.35c.11.06.3.15.56.15.29 0 .45-.16.45-.36 0-.23-.17-.33-.52-.46-.47-.18-.7-.42-.7-.82 0-.47.36-.8 1-.8.3 0 .57.07.76.18l-.12.37ZM52.94 85.54h-.5v-1.69a1.02 1.02 0 0 1-.85.49c-.37 0-.95-.23-.95-1.16v-1.6h.49v1.55c0 .43.16.8.62.8a.7.7 0 0 0 .7-.72v-1.63h.49v3.96ZM49.84 85.54h-.5v-3.96h.5v3.96ZM47.98 85.04c0-.17.11-.3.3-.3.18 0 .3.13.3.3a.3.3 0 0 1-.3.3c-.19 0-.3-.13-.3-.3Zm.54-3.46v2.7h-.49v-2.7h.5ZM47.28 82.08c-.14-.1-.4-.2-.64-.2-.36 0-.53.18-.53.4 0 .24.14.37.5.5.49.18.72.44.72.77 0 .43-.35.79-.93.79-.28 0-.52-.08-.67-.17l.13-.35c.1.06.3.15.55.15.29 0 .45-.16.45-.36 0-.23-.16-.33-.52-.46-.46-.18-.7-.42-.7-.82 0-.47.37-.8 1-.8.3 0 .57.07.76.18l-.12.37ZM44.42 85.05v-.77h-.7v-.38h.7v-1.45c0-.34-.1-.53-.37-.53-.13 0-.22.02-.29.04l-.02-.37c.1-.04.25-.07.43-.07.23 0 .42.07.54.2.14.15.18.39.18.7v1.48h.42v.38h-.42v.64l-.47.13Z"/><path stroke="#232323" stroke-linecap="round" stroke-linejoin="round" stroke-width=".59" d="M37.17 80.53s15.91-2.43 26.9 0M66.5 81.11s1.3.21 1.86.34M37.17 77.82s15.91-2.43 26.9 0M66.5 78.4s1.3.22 1.86.35"/><path fill="#fff" d="M32.4 79.81a3.94 3.94 0 0 1 2.38-1.65c2.45-.57 8.06-1.58 17.37-1.58 9.32 0 14.93 1 17.37 1.58.97.23 1.82.82 2.38 1.65 1.13 1.7 1.66 3.2 1.8 4.51.2-1.63-.17-3.67-1.8-6.12a3.94 3.94 0 0 0-2.38-1.65c-2.44-.58-8.05-1.59-17.37-1.59-9.31 0-14.92 1.01-17.37 1.59-.97.23-1.82.82-2.37 1.65-1.64 2.45-2.01 4.5-1.81 6.12.15-1.3.67-2.8 1.8-4.51Z" opacity=".6"/><path stroke="#232323" stroke-linecap="round" stroke-linejoin="round" stroke-width="1.19" d="M52.15 74.96c9.32 0 14.93 1.01 17.37 1.59.97.23 1.82.82 2.38 1.65 4.67 7-.93 10.72-.93 10.72-8.32-1.98-18.82-1.9-18.82-1.9s-10.5-.08-18.82 1.9c0 0-5.6-3.72-.92-10.72a3.94 3.94 0 0 1 2.37-1.65c2.45-.58 8.06-1.59 17.37-1.59Z" clip-rule="evenodd"/></g></g><defs><filter id="b" width="119.21" height="120.05" x="-16.8" y="18.57" color-interpolation-filters="sRGB" filterUnits="userSpaceOnUse"><feFlood flood-opacity="0" result="BackgroundImageFix"/><feColorMatrix in="SourceAlpha" result="hardAlpha" values="0 0 0 0 0 0 0 0 0 0 0 0 0 0 0 0 0 0 127 0"/><feOffset dx="2.4" dy="-2.32"/><feComposite in2="hardAlpha" operator="out"/><feColorMatrix values="0 0 0 0 0 0 0 0 0 0 0 0 0 0 0 0 0 0 0.15 0"/><feBlend in2="BackgroundImageFix" result="effect1_dropShadow_3863_7295"/><feColorMatrix in="SourceAlpha" result="hardAlpha" values="0 0 0 0 0 0 0 0 0 0 0 0 0 0 0 0 0 0 127 0"/><feOffset dx="-2.64" dy="-1.92"/><feGaussianBlur stdDeviation=".16"/><feComposite in2="hardAlpha" operator="out"/><feColorMatrix values="0 0 0 0 0 0 0 0 0 0 0 0 0 0 0 0 0 0 0.15 0"/><feBlend in2="effect1_dropShadow_3863_7295" result="effect2_dropShadow_3863_7295"/><feBlend in="SourceGraphic" in2="effect2_dropShadow_3863_7295" result="shape"/></filter></defs></svg>