<svg xmlns="http://www.w3.org/2000/svg" fill="none" viewBox="0 0 104 104"><circle cx="52" cy="52" r="52" fill="#F2E7FE"/><mask id="a" width="104" height="104" x="0" y="0" maskUnits="userSpaceOnUse" style="mask-type:luminance"><circle cx="52" cy="52" r="52" fill="#fff"/></mask><g mask="url(#a)"><path fill="#BCC2D3" d="M84.92 123.46c10.14 8 26.6 8.22 37.22-6.18 4.17-5.65 6.4-12.19 7.57-18.18a66.83 66.83 0 0 0 1.18-12.72c0-4.7-2.71-9.02-7.01-10.94-4.36-1.93-7.9-.97-10.55.87a11.86 11.86 0 0 0-4.77 12.06c.57 2.92 1.1 6.92.92 11.24-.16 4.01-.94 8.3-2.85 12.27-6.03 12.53-16.53 4.86-16.53 4.86l-5.18 6.72Z"/><path fill="#232323" d="M119.67 114.25c3.91-5.3 6.02-11.46 7.1-17.09.9-4.56 1.13-8.79 1.12-11.96a11.24 11.24 0 0 0-7.9-10.78 11.95 11.95 0 0 1 10.9 11.97c0 3.37-.24 7.87-1.19 12.72-1.16 5.99-3.4 12.53-7.56 18.17-10.62 14.4-27.08 14.18-37.22 6.18l1.6-2.07c9.6 6.17 23.79 5.56 33.15-7.14Z" opacity=".2"/><path fill="#fff" d="M115.58 76.84a11.86 11.86 0 0 0-4.77 12.06c.58 2.92 1.1 6.92.92 11.24-.16 4.01-.94 8.3-2.84 12.27-3.84 7.97-9.48 7.76-13.09 6.56 3.44.46 7.73-.64 10.83-7.1a31.17 31.17 0 0 0 2.85-12.26c.18-4.32-.35-8.31-.92-11.23-.9-4.6.9-9.4 4.77-12.07a10.1 10.1 0 0 1 9.4-1.3c-2.83-.37-5.22.5-7.15 1.83Z" opacity=".6"/><path stroke="#232323" stroke-linecap="round" stroke-linejoin="round" stroke-width="1.5" d="M90.1 116.74s10.5 7.67 16.53-4.86c3.97-8.25 3.04-17.88 1.94-23.5-.9-4.61.9-9.4 4.76-12.07 2.66-1.83 6.2-2.8 10.55-.86a11.96 11.96 0 0 1 7.02 10.93c0 7.54-1.22 20.68-8.75 30.9-10.62 14.4-27.09 14.18-37.23 6.18l5.18-6.72Z" clip-rule="evenodd"/><path fill="#BCC2D3" d="M90.75 137.19c-4.24 2.9-15.41-2.53-19.95-6.93H32.52c-4.55 4.4-15.71 9.84-19.96 6.93-2.28-1.56-1.06-4.23.41-6.22 1.1-1.51 2.35-2.64 2.35-2.64-18.47-15.94-3.73-33.06-3.73-33.06C12.7 88.86 13.53 81.1 14 76.2a12.58 12.58 0 0 0-1.66-7.57c-.2-.32-.4-.67-.59-1.06v-.02c-1.7-3.33-3.33-9.1-2.09-18.15.21-1.53.53-2.98.93-4.33v-.01c3.58-12.07 13.74-17.18 13.74-17.18s1.23-12.01 4.2-12.96c2.95-.95 9.04 9.6 9.04 9.6 6.2-1.61 14.1-1.56 14.1-1.56s7.89-.05 14.09 1.57c0 0 6.08-10.56 9.05-9.61 2.96.95 4.19 12.96 4.19 12.96S91.57 34.2 93.66 49.4c1.39 10.11-.82 16.13-2.68 19.23a12.47 12.47 0 0 0-1.66 7.57c.46 4.92 1.29 12.66 2.4 19.07 0 0 14.74 17.13-3.72 33.07 0 0 6.75 6.12 2.75 8.85Z"/><path fill="#E9EDF4" d="M69.44 116.2c0 5.74 9.96 10.57 5.83 13.67l-33.99.4-.73-.4s2.6-4.3 1.98-17.65c0 0-1.25-15.39 10.78-15.6 12.03-.22 16.13 10.44 16.13 19.58Z"/><ellipse cx="51.93" cy="60.39" fill="#E9EDF4" rx="12.85" ry="9.31"/><path fill="#232323" d="M23.04 75.24c-2.2.3-5.98.51-9-.85a12.26 12.26 0 0 0-1.7-5.76c-.2-.32-.4-.67-.59-1.06.2.32 3.34 5.18 11.32 7 .37.1.34.62-.03.67ZM80.83 75.24c2.2.3 5.98.51 9-.85.09-2.02.66-4 1.7-5.76.2-.32.4-.67.6-1.06-.21.32-3.34 5.18-11.33 7-.37.1-.34.62.03.67Z" opacity=".2"/><path fill="#fff" d="M78.99 27.87s-1.23-12-4.2-12.95c-2.95-.95-9.04 9.6-9.04 9.6-6.2-1.62-14.1-1.56-14.1-1.56s-7.89-.05-14.08 1.56c0 0-6.1-10.55-9.05-9.6-2.96.94-4.19 12.95-4.19 12.95S14.16 33 10.59 45.06c.26-.53 5.93-11.97 15.58-15.96 0 0 1.14-11.46 2.78-12.14 1.3-.53 5.24 5.74 6.82 8.35.4.67 1.17 1.03 1.94.91a102.8 102.8 0 0 1 13.95-1.14c5.57 0 11.43.77 13.95 1.14.78.12 1.54-.24 1.94-.91 1.58-2.61 5.53-8.88 6.83-8.35 1.63.67 2.77 12.14 2.77 12.14 9.65 3.99 15.32 15.43 15.58 15.96-3.58-12.07-13.74-17.19-13.74-17.19Z" opacity=".6"/><path fill="#FF99B9" d="M33.16 25.95s-1.94-2.2-2.15.66c0 0-2.08-1.69-2.4 1.07l-2.06.5a.6.6 0 0 1-.74-.62c.24-2.35 1.1-9 3.2-11.37a44.85 44.85 0 0 1 4.14 9.76Z"/><path fill="#232323" d="M33.16 25.95s-1.94-2.2-2.15.66c0 0-2.08-1.69-2.4 1.07-1.32-4.53.65-10.15.85-10.71 1 1.8 2.5 4.9 3.7 8.98Z" opacity=".2"/><path fill="#232323" d="M29.21 16.05c.55.74 1 1.5 1.44 2.3a38.76 38.76 0 0 1 2.22 4.89l.46 1.26.43 1.28a.61.61 0 0 1-.39.78.61.61 0 0 1-.63-.15l-.05-.05a3.02 3.02 0 0 0-.54-.43.93.93 0 0 0-.24-.11l-.06-.01c.03 0 .05-.03.02 0a.6.6 0 0 0-.09.2 3.32 3.32 0 0 0-.12.5v.1l-.02.04c0-.05 0 .15-.07.26a.64.64 0 0 1-.71.33.7.7 0 0 1-.27-.13l-.01-.01a2.55 2.55 0 0 0-.56-.35.86.86 0 0 0-.25-.09.33.33 0 0 0-.1-.01l-.06-.01h-.04c-.13.02-.29.14-.43.34l-.2.33c-.06.13-.13.25-.22.39a.13.13 0 0 1-.24-.03 3.55 3.55 0 0 1-.07-.48c0-.16.01-.32.05-.49.05-.17.1-.34.22-.5l.08-.14.11-.11.12-.11.15-.1.15-.07.16-.05c.12-.04.22-.05.33-.06.22-.01.41.02.6.06a3 3 0 0 1 .97.46l.03.02a.65.65 0 0 0-.59-.1c-.2.07-.3.2-.36.3-.07.11-.08.31-.07.25v-.06l.01-.12a4.2 4.2 0 0 1 .14-.77c.06-.19.14-.38.3-.59.14-.2.4-.41.7-.48.32-.08.6-.03.8.05.22.07.39.17.54.27a4 4 0 0 1 .77.7l-1.06.59-.35-1.28-.37-1.26a59.3 59.3 0 0 0-.85-2.5 38.5 38.5 0 0 0-.98-2.43c-.36-.8-.74-1.6-1.19-2.33v-.01a.24.24 0 0 1 .07-.33.23.23 0 0 1 .32.05Z"/><path fill="#FF99B9" d="M70.15 25.95s1.94-2.2 2.16.66c0 0 2.07-1.69 2.4 1.07l2.06.5c.4.1.77-.21.73-.62-.24-2.35-1.09-9-3.2-11.37a44.85 44.85 0 0 0-4.14 9.76Z"/><path fill="#232323" d="M70.15 25.95s1.94-2.2 2.16.66c0 0 2.07-1.69 2.4 1.07 1.32-4.53-.66-10.15-.86-10.71-1 1.8-2.5 4.9-3.7 8.98Z" opacity=".2"/><path fill="#232323" d="M74.5 16.33c-.46.72-.84 1.53-1.2 2.33a39.13 39.13 0 0 0-1.82 4.93l-.38 1.26-.35 1.27-1.06-.58c.24-.28.47-.49.77-.7.16-.1.32-.2.54-.28a1.27 1.27 0 0 1 1.51.44c.16.2.23.4.29.58a2.7 2.7 0 0 1 .14.78v.12l.01.06c0 .06 0-.14-.07-.24a.62.62 0 0 0-.36-.3.62.62 0 0 0-.34-.02.6.6 0 0 0-.25.12l.03-.03c.3-.2.6-.36.97-.46a2 2 0 0 1 .6-.06c.11 0 .22.02.33.05l.16.05.15.08.15.1.12.1.11.12.08.13c.12.17.17.34.22.5.04.18.05.34.05.5-.01.16-.03.32-.06.47a.13.13 0 0 1-.24.04h-.01a4.09 4.09 0 0 1-.22-.4l-.2-.32c-.14-.2-.3-.32-.42-.34h-.1l-.1.02c-.08.01-.16.05-.26.08-.18.08-.39.22-.56.36h-.01a.67.67 0 0 1-.6.1.64.64 0 0 1-.38-.3c-.06-.1-.08-.31-.07-.25l-.01-.05-.01-.1-.03-.18a3.32 3.32 0 0 0-.09-.32.7.7 0 0 0-.09-.2c-.03-.02 0 0 .02 0l-.06.01a.97.97 0 0 0-.24.11c-.18.11-.39.29-.54.44l-.05.05a.61.61 0 0 1-1.02-.63l.44-1.28.46-1.26a40.14 40.14 0 0 1 2.22-4.9c.43-.79.88-1.56 1.43-2.3.08-.1.23-.13.34-.05.1.08.12.22.06.32v.03ZM56.53 53.75c-.18-2.08-4.87-1.97-4.87-1.97s-4.7-.11-4.88 1.97c-.14 1.56 2.65 2.68 4.07 3.15.52.17 1.09.17 1.61 0 1.42-.47 4.21-1.6 4.07-3.15ZM18.21 56.24a51.89 51.89 0 0 0-4.14-1.22c-1.4-.34-2.8-.62-4.2-.81a31.6 31.6 0 0 0-4.26-.31H4.54l-1.08.06-.53.02-.54.06-1.08.1h-.02a.19.19 0 0 1-.08-.37l1.06-.34.54-.16.54-.12 1.1-.2 1.12-.12c.18-.01.37-.04.56-.04l.56-.01c.37 0 .75-.02 1.12 0l1.11.08a23.7 23.7 0 0 1 5.44 1.17 19.1 19.1 0 0 1 4.02 1.88c.1.05.12.17.06.26a.19.19 0 0 1-.22.07ZM19.37 62.43a29.73 29.73 0 0 0-7.55 1.9c-1.19.5-2.36 1.05-3.47 1.72-.57.3-1.1.68-1.66 1.03-.28.17-.53.38-.8.57-.27.2-.54.38-.82.57h-.01a.18.18 0 0 1-.26-.05.19.19 0 0 1 .01-.22 14.43 14.43 0 0 1 2.96-2.8c.54-.41 1.14-.74 1.73-1.1.3-.16.61-.3.92-.45l.46-.22.48-.19c.64-.25 1.29-.46 1.94-.65l1-.24c.33-.08.67-.12 1.01-.18 1.35-.2 2.72-.26 4.08-.06.1.02.17.11.15.21a.19.19 0 0 1-.16.16h-.01ZM84.94 55.91a18.9 18.9 0 0 1 4.02-1.88 23.7 23.7 0 0 1 4.33-1.04c.37-.05.74-.1 1.11-.13l1.12-.08c.37-.01.74 0 1.12 0l.56.01c.18 0 .37.03.55.05l1.12.11 1.1.21.55.12.53.16c.36.1.71.22 1.06.34.1.03.15.14.11.24a.18.18 0 0 1-.18.12h-.02l-1.08-.1-.54-.06-.54-.02-1.07-.06h-1.07c-1.43.02-2.85.1-4.26.31-1.4.2-2.81.47-4.2.81-1.4.35-2.78.76-4.15 1.23a.19.19 0 0 1-.24-.11.19.19 0 0 1 .07-.23ZM83.93 62.06c1.36-.2 2.73-.14 4.08.06.33.06.67.1 1 .18l1 .24a20.37 20.37 0 0 1 2.42.84l.47.22.92.46c.59.35 1.19.67 1.73 1.1 1.13.77 2.1 1.75 2.96 2.8.06.07.05.19-.03.25a.19.19 0 0 1-.22.01h-.01l-.82-.57c-.27-.2-.52-.4-.8-.57-.56-.36-1.09-.72-1.66-1.04a26 26 0 0 0-7.16-2.92 29.57 29.57 0 0 0-3.86-.7h-.01a.18.18 0 0 1-.17-.2.19.19 0 0 1 .16-.16Z"/><path stroke="#232323" stroke-linecap="round" stroke-linejoin="round" stroke-width="1.15" d="M56.2 61.28S55 63.4 51.47 63.4c-3.53 0-4.72-2.12-4.72-2.12"/><ellipse cx="51.66" cy="53.1" fill="#fff" rx="2.15" ry=".48"/><path fill="#fff" d="M42.03 47.83a9.2 9.2 0 0 1-6.66 8.84c-5.09-3.85-9.9-3.33-9.9-3.33a9.2 9.2 0 1 1 16.56-5.51Z"/><circle cx="36.46" cy="48.34" r="1.42" fill="#232323"/><path stroke="#232323" stroke-linecap="round" stroke-linejoin="round" stroke-width="1.25" d="M42.03 47.83a9.2 9.2 0 0 1-6.66 8.84c-5.09-3.85-9.9-3.33-9.9-3.33a9.2 9.2 0 1 1 16.56-5.51Z" clip-rule="evenodd"/><path fill="#fff" d="M61.28 47.83a9.2 9.2 0 0 0 6.67 8.84c5.08-3.85 9.9-3.33 9.9-3.33a9.2 9.2 0 1 0-16.56-5.51Z"/><circle cx="66.85" cy="48.34" r="1.42" fill="#232323"/><path stroke="#232323" stroke-linecap="round" stroke-linejoin="round" stroke-width="1.25" d="M61.28 47.83a9.2 9.2 0 0 0 6.67 8.84c5.08-3.85 9.9-3.33 9.9-3.33a9.2 9.2 0 1 0-16.56-5.51Z" clip-rule="evenodd"/><path stroke="#232323" stroke-linecap="round" stroke-linejoin="round" stroke-width="1.25" d="M51.65 130.27H70.8c4.54 4.4 15.7 9.83 19.95 6.92 4-2.74-2.75-8.86-2.75-8.86 18.47-15.94 3.72-33.06 3.72-33.06a266.97 266.97 0 0 1-2.4-19.08c-.25-2.63.3-5.3 1.67-7.56 1.85-3.1 4.06-9.13 2.67-19.24-2.08-15.19-14.67-21.52-14.67-21.52s-1.23-12-4.19-12.96c-2.96-.95-9.05 9.61-9.05 9.61-6.2-1.62-14.09-1.56-14.09-1.56s-7.9-.06-14.1 1.56c0 0-6.08-10.55-9.04-9.6-2.96.94-4.19 12.95-4.19 12.95S11.75 34.2 9.66 49.4c-1.39 10.12.82 16.14 2.68 19.24A12.48 12.48 0 0 1 14 76.19a265.54 265.54 0 0 1-2.4 19.08s-14.74 17.13 3.72 33.06c0 0-6.75 6.13-2.75 8.86 4.24 2.9 15.42-2.53 19.96-6.92h19.14"/><path fill="#fff" d="M66 73h8v34h-8z"/><path fill="url(#b)" fill-rule="evenodd" d="M69.98 81.98a3.51 3.51 0 0 0 3.48-3.48c0-1.9-1.58-3.48-3.48-3.48a3.47 3.47 0 0 0-3.43 3.48c0 1.86 1.5 3.48 3.43 3.48Zm-3.45 6.52a3.51 3.51 0 0 1 7.02 0v16.6a3.51 3.51 0 0 1-7.02 0V88.5ZM43 120h28c15.48 0 28-12.53 28-28 0-15.48-12.53-28-28-28-15.48 0-28 12.53-28 28v28Z" clip-rule="evenodd"/><path fill="#BCC2D3" d="M113.72 94.64s-17.2-17-24.63-9.73 11.24 23.56 11.24 23.56 6.98-1.49 9.9-4.5c2.92-3.02 3.48-9.33 3.48-9.33Z"/><path fill="#232323" d="M90.06 86.3c5.64-5.51 16.87 2.91 21.98 7.32l.02-.14s-17.2-17-24.63-9.73c-6.7 6.56 7.8 20.43 10.73 23.11-4.97-5.05-13.55-15.23-8.1-20.56Z" opacity=".2"/><path fill="#232323" d="M113.3 94.68a72.34 72.34 0 0 0-5.47-4.52 50.57 50.57 0 0 0-5.9-3.9 22.36 22.36 0 0 0-6.43-2.53 8.74 8.74 0 0 0-3.31-.06c-1.06.21-2.04.71-2.81 1.47a5.04 5.04 0 0 0-1.5 2.74 7.61 7.61 0 0 0 .19 3.27c.28 1.1.72 2.17 1.24 3.2a30.44 30.44 0 0 0 1.77 3.02 51.1 51.1 0 0 0 4.34 5.57 75.2 75.2 0 0 0 4.93 5.1v.02c.14.12.14.32.02.45a.32.32 0 0 1-.45.02A58.6 58.6 0 0 1 90.16 98c-.69-1-1.34-2.02-1.9-3.1a16.95 16.95 0 0 1-1.38-3.43 8.69 8.69 0 0 1-.23-3.8 6.27 6.27 0 0 1 1.86-3.43 6.79 6.79 0 0 1 3.43-1.78 9.8 9.8 0 0 1 3.79.07c1.22.24 2.39.65 3.51 1.12 1.13.48 2.2 1.04 3.25 1.65a57.47 57.47 0 0 1 11.26 8.93c.13.13.13.33 0 .46a.32.32 0 0 1-.44 0h-.01Z"/><path fill="#232323" d="M94.03 86.35a26.6 26.6 0 0 0-3.3-2.23.63.63 0 1 1 .6-1.1l.09.06a28.61 28.61 0 0 1 2.99 2.89c.1.11.08.28-.03.38a.27.27 0 0 1-.35 0ZM90.32 90.2a28.49 28.49 0 0 1-3-2.9.63.63 0 1 1 1.03-.72 26.86 26.86 0 0 0 2.34 3.23c.1.11.09.28-.03.38a.26.26 0 0 1-.34 0Z"/><path fill="#BCC2D3" d="M38.78 111.46S58.5 97.5 52.65 88.92c-5.86-8.59-25.16 6.95-25.16 6.95s.25 7.13 2.7 10.53c2.47 3.4 8.59 5.06 8.59 5.06Z"/><path fill="#232323" d="M51.46 90.13c4.44 6.51-5.82 16.1-11.05 20.37l.13.03s19.74-13.96 13.88-22.55c-5.28-7.73-21.47 4.11-24.62 6.53 5.84-4 17.36-10.67 21.66-4.38Z" opacity=".2"/><path fill="#232323" d="M38.59 111.2a72.46 72.46 0 0 0 5.4-4.6 50.7 50.7 0 0 0 4.87-5.12 22.37 22.37 0 0 0 3.62-5.9c.4-1.05.67-2.16.64-3.24a5.52 5.52 0 0 0-.96-3.03 5.04 5.04 0 0 0-2.44-1.96c-1-.38-2.12-.46-3.25-.38-1.12.09-2.26.33-3.36.67-1.11.33-2.2.75-3.28 1.21a51.08 51.08 0 0 0-6.25 3.3c-2.02 1.23-4 2.56-5.89 3.96v.01a.32.32 0 0 1-.4-.5 58.58 58.58 0 0 1 12.08-7.78c1.1-.5 2.22-.97 3.4-1.33 1.16-.37 2.36-.65 3.6-.75a8.69 8.69 0 0 1 3.8.43 6.27 6.27 0 0 1 3.04 2.42 6.79 6.79 0 0 1 1.15 3.7 9.8 9.8 0 0 1-.73 3.71 17.84 17.84 0 0 1-1.72 3.27 28.32 28.32 0 0 1-2.19 2.9 57.4 57.4 0 0 1-10.75 9.53.32.32 0 0 1-.38-.52Z"/><path fill="#232323" d="M50.16 93.68a26.62 26.62 0 0 0 2.77-2.86.63.63 0 1 1 .98.78l-.07.08a28.58 28.58 0 0 1-3.37 2.44.27.27 0 0 1-.37-.1.27.27 0 0 1 .05-.34ZM47.02 89.35a28.58 28.58 0 0 1 3.37-2.43.63.63 0 1 1 .54 1.13 26.83 26.83 0 0 0-3.58 1.74h-.01a.27.27 0 0 1-.37-.1.26.26 0 0 1 .05-.34Z"/><path stroke="#232323" stroke-linecap="round" stroke-linejoin="round" stroke-width="2.11" d="M17.4 36.1c4.87-.61 14.6-1.4 24.35.36 1.9.34 3.4 1.81 3.76 3.71 1.17 6.31 1.71 20.08-16.04 20.08-17.63 0-17.22-13.88-16.06-20.38.35-2 1.97-3.51 3.98-3.77Z" clip-rule="evenodd"/><path fill="#232323" d="M15.14 37.03s-1.11-.72-3.45-.36c-.96.15-1.74.86-1.99 1.8-.26 1-.53 2.43-.55 4-.02 1.4 1 2.59 2.38 2.79.41.06.88.09 1.4.08 0 0-1.12-7.25 2.21-8.3Z"/><path stroke="#232323" stroke-linecap="round" stroke-linejoin="round" stroke-width="2.11" d="M85.92 36.1c-4.87-.61-14.61-1.4-24.36.36a4.65 4.65 0 0 0-3.75 3.71c-1.18 6.31-1.72 20.08 16.04 20.08 17.63 0 17.22-13.88 16.05-20.38a4.63 4.63 0 0 0-3.98-3.77Z" clip-rule="evenodd"/><path fill="#232323" d="M88.17 37.03s1.11-.72 3.45-.36c.96.15 1.74.86 1.99 1.8.26 1 .54 2.43.55 4 .02 1.4-1 2.59-2.37 2.79-.42.06-.89.09-1.41.08 0 0 1.12-7.25-2.21-8.3Z"/><path stroke="#232323" stroke-linecap="round" stroke-linejoin="round" stroke-width="2.11" d="M57.56 41.72s-1.62-2.56-5.9-2.56c-4.29 0-5.9 2.56-5.9 2.56"/></g><defs><linearGradient id="b" x1="43" x2="43" y1="64" y2="120" gradientUnits="userSpaceOnUse"><stop stop-color="#6A19D5"/><stop offset="1" stop-color="#D71ADE"/></linearGradient></defs></svg>